<?xml version="1.0" encoding="UTF-8" standalone="no"?>
<!-- Generator: Adobe Illustrator 15.0.0, SVG Export Plug-In . SVG Version: 6.00 Build 0)  -->

<svg
   xmlns:dc="http://purl.org/dc/elements/1.1/"
   xmlns:cc="http://creativecommons.org/ns#"
   xmlns:rdf="http://www.w3.org/1999/02/22-rdf-syntax-ns#"
   xmlns:svg="http://www.w3.org/2000/svg"
   xmlns="http://www.w3.org/2000/svg"
   xmlns:sodipodi="http://sodipodi.sourceforge.net/DTD/sodipodi-0.dtd"
   xmlns:inkscape="http://www.inkscape.org/namespaces/inkscape"
   version="1.1"
   id="Livello_1"
   x="0px"
   y="0px"
   width="100px"
   height="100px"
   viewBox="0 0 100 100"
   enable-background="new 0 0 100 100"
   xml:space="preserve"
   inkscape:version="0.48.4 r9939"
   sodipodi:docname="cow.svg"><metadata
     id="metadata9"><rdf:RDF><cc:Work
         rdf:about=""><dc:format>image/svg+xml</dc:format><dc:type
           rdf:resource="http://purl.org/dc/dcmitype/StillImage" /></cc:Work></rdf:RDF></metadata><defs
     id="defs7" /><sodipodi:namedview
     pagecolor="#ffffff"
     bordercolor="#666666"
     borderopacity="1"
     objecttolerance="10"
     gridtolerance="10"
     guidetolerance="10"
     inkscape:pageopacity="0"
     inkscape:pageshadow="2"
     inkscape:window-width="640"
     inkscape:window-height="480"
     id="namedview5"
     showgrid="false"
     inkscape:zoom="2.36"
     inkscape:cx="50"
     inkscape:cy="50"
     inkscape:window-x="0"
     inkscape:window-y="27"
     inkscape:window-maximized="0"
     inkscape:current-layer="Livello_1" /><path
     d="m 3.6397199,15.578 c -0.483,0.364 1.021,4.662 -1.617,4.046 0.928,2.6 3.319,2.664 3.641,5.257 0.48,3.892 -3.684,6.832 -5.66300000388,9.305 C 1.1087199,38.196 6.5717199,38.569 9.3067199,35.803 c 2.6990001,0.595 5.2170001,-0.259 7.2780001,0.81 4.985,2.583 2.819,11.989 4.854,18.202 1.859,5.68 5.606,6.752 6.877,10.517 -0.789,3.487 0.203,6.599 -0.404,9.306 -0.652,2.9 -3.829,4.34 -3.643,7.28 0.652,0.604 2.029,-0.351 3.643,0 0.773,-2.058 1.865,-3.799 3.236,-5.259 0.218,-2.612 -0.471,-6.133 0.402,-8.09 3.342,4.345 0.76,11.592 -2.427,14.158 5.765,2.053 7.634,-5.22 6.067,-10.518 1.672,-2.777 4.115,-4.784 3.641,-9.708 3.398,-0.585 6.609,1.216 10.111,1.616 9.477,1.09 19.491,-1.128 27.911,-2.021 1.769,3.436 2.413,8.178 1.618,12.54 -0.762,4.169 -5.063,6.873 -6.067,9.708 9.663,1.771 7.412,-10.852 12.539,-14.562 -0.238,-2.998 -0.995,-5.479 -0.81,-8.899 1.693,3.521 5.769,8.073 6.067,12.943 0.226,3.677 -2.116,5.921 -3.236,9.304 1.485,0 2.967,0 4.45,0 0.71,-2.271 0.851,-3.328 0.81,-6.473 -0.046,-3.55 1.861,-8.068 1.617,-10.921 -0.221,-2.579 -2.68,-4.815 -2.831,-7.279 -0.17,-2.768 1.577,-6.098 2.428,-8.899 0.849,-2.803 1.473,-5.962 3.64,-7.686 0.87,12.36 -2.372,24.366 -0.809,34.785 3.236,-1.14 2.022,-5.468 2.022,-8.091 0,-5.69 0.108,-10.68 0.404,-16.584 0.434,-8.685 2.702,-17.604 0,-22.649 -12.972,-4.323 -29.737,-0.416 -47.326,-1.214 -8.604,-0.391 -18.312,-0.407 -23.46,-1.618 -2.501,-0.589 -4.492,-2.761 -7.281,-2.022 0.003,-2.021 2.104,-3.644 0.811,-5.663 -2.035,0.122 -3.016,1.3 -4.854,1.618 -2.467,-1.983 -3.336,-5.564 -8.4940001,-4.854 0.779,1.513 4.0630001,0.522 3.6420001,3.236 -2.8990001,0.729 -7.2980001,-0.521 -8.0930001,-3.238 z"
     id="path3"
     inkscape:connector-curvature="0" /></svg>