<svg xmlns="http://www.w3.org/2000/svg" xmlns:xlink="http://www.w3.org/1999/xlink" version="1.1" id="Animals" x="0px" y="0px" width="72px" height="72px" viewBox="0 0 72 72" enable-background="new 0 0 72 72" xml:space="preserve">
<path d="M3.406,33.32c-0.155,0.493-0.134,1.467,0.048,2.143c0.501,1.859,2.228,1.467,3.5,1.966c0.195-0.297,0.402-0.587,0.621-0.868  c0.264-0.339,0.545-0.664,0.843-0.974c-0.109-0.106-0.227-0.205-0.352-0.292c-0.17-0.12-0.354-0.22-0.544-0.3  c-0.6-0.061-1.212-0.05-1.727-0.11C4.675,34.753,4.021,34.285,3.406,33.32z"/>
<path d="M69.123,30.06c-0.335-0.152-0.664-0.424-0.833-0.75c-0.104-0.202-0.147-0.423-0.056-0.579  c0.115-0.194,0.442-0.286,0.716-0.195c0.284,0.095,0.512,0.386,0.582,0.693c0.075,0.329-0.031,0.675-0.247,0.895  c-0.178,0.182-0.432,0.278-0.689,0.315c0.262,0.341,0.46,0.661,0.672,1.066c0.406-0.094,0.816-0.268,1.083-0.561  c0.545-0.598,0.493-1.696,0.029-2.482c-0.401-0.68-1.11-1.127-1.869-1.051c-0.58,0.058-1.188,0.419-1.344,0.935  c-0.055,0.182-0.053,0.383-0.019,0.58c0.447,0.358,0.928,0.87,1.289,1.313c0.011,0.014,0.022,0.027,0.034,0.042  c0.137,0.006,0.264-0.011,0.379-0.056C68.951,30.186,69.042,30.129,69.123,30.06z"/>
<path d="M70.578,30.95c0.149,0.138,0.284,0.296,0.353,0.478c0.154,0.403-0.022,0.916,0.109,1.319c0.153,0.471,0.728,0.791,0.9,1.257  c0.15,0.406-0.005,0.923-0.186,1.334c-0.089-0.48-0.182-0.994-0.467-1.327c-0.314-0.367-0.861-0.516-1-1.038  c-0.082-0.307-0.024-0.743-0.163-1.061c-0.068-0.157-0.185-0.285-0.311-0.39c0.161-0.05,0.315-0.127,0.449-0.23  C70.385,31.197,70.491,31.08,70.578,30.95z"/>
<path d="M70.08,41.36c1.39-3.34,0.42-8.06-1.76-10.9c-2.26-2.94-5.83-3.88-9.23-4.29c-8.77-1.06-16.42,1.37-26.96,2.49  c-7.31,0.77-16.01,0.91-21.8,5.51c0.33,0.08,0.65,0.19,0.96,0.34c0.95,0.45,1.76,1.22,2.31,2.11c-0.64-0.81-1.49-1.6-2.59-2.01  c-0.7-0.26-1.51-0.37-2.13-0.55c-1.09-0.33-1.65-0.9-2.09-1.96c-0.23,0.46-0.13,1,0.08,1.46c0.59,1.29,2.07,1.82,3.02,2.97  c0.9,1.07,1.34,2.66,2.57,3.21c0.53,0.24,1.21,0.28,1.47-0.3c-0.05,0.3-0.27,0.53-0.56,0.62c-0.45,0.14-1.06-0.07-1.52-0.38  c-0.6-0.4-0.95-0.99-1.29-1.58c-0.31-0.55-0.62-1.11-1.04-1.57c-0.26-0.3-0.57-0.55-0.9-0.77c-0.76,0.82-1.45,1.75-2.05,2.81  c-0.45,0.79-0.84,1.65-1.41,2.36c-0.69,0.86-1.63,1.52-2.52,1.37c-0.31-0.06-0.61-0.21-0.87-0.39C1.4,42,1.03,42.15,0.74,42.39  c-0.83,0.72-0.91,2.28-0.35,3.28c0.57,0.99,1.79,1.42,2.87,1.6c0.55,0.27,1.15,0.47,1.76,0.57c1,0.16,2.05,0.04,3.01-0.27  c-0.74,0.43-1.62,0.7-2.48,0.71c-0.49,0-0.98-0.08-1.44-0.22c0.97,0.77,2.15,1.35,3.33,1.73c4,1.26,8.04,0.12,12.01-0.29  c1.94-0.21,3.87-0.24,5.81-0.16c0.79,1.83,1.33,3.79,1.56,5.78c0.24,2.17,0.11,4.38-0.71,6.73c0.4,0.14,1.4,0.18,2-0.02  c0.98-0.32,0.91-1.28,0.83-1.91c0.12,0.25,0.25,0.5,0.37,0.75c0.22-0.16,0.3-0.36,0.36-0.57c0.25-0.92,0-1.95,0.04-3.1  c0.1-2.24,1.33-4.94,2.11-7.12c1.71,0.19,3.45,0.36,5.23,0.46c7.27,0.38,15.07-0.51,21.12-2.35c1.14,2.37,2.73,3.81,5.05,4.95  c-0.39,2.97-0.79,5.94-1.19,8.91c0.39,0.17,1.38,0.3,1.99,0.15c1.01-0.23,1.02-1.19,1-1.83c0.12,0.26,0.25,0.51,0.37,0.76  c0.19-0.3,0.32-0.68,0.38-1.08c0.05-0.39,0.03-0.79,0.03-1.19c-0.04-2.88,0.71-5.59,1.72-7.81c-0.56-0.49-1.05-1.12-1.27-1.83  c-0.3-1.01-0.05-2.19,0.42-3.13C68,44.47,69.36,43.1,70.08,41.36z M1.33,44.71c-0.09,0.01-0.32-0.15-0.4-0.35  c-0.15-0.37,0.21-0.9,0.31-0.82c0.06,0.05,0.03,0.31,0.06,0.57C1.33,44.41,1.45,44.69,1.33,44.71z M8.42,41.05  c-0.08-0.06-0.15-0.13-0.24-0.16c-0.14-0.04-0.33,0.05-0.44,0.16c0.2-0.23,0.4-0.45,0.61-0.67c0.15,0.1,0.31,0.2,0.48,0.27  c0.3,0.14,0.63,0.22,0.96,0.25C9.39,41.13,8.81,41.31,8.42,41.05z"/>
<path d="M24.986,58.687c0.233-0.142,0.334-0.337,0.41-0.541c0.33-0.889,0.167-1.939,0.316-3.085  c0.078-0.601,0.242-1.229,0.458-1.867c-0.183-0.799-0.421-1.587-0.713-2.354c-0.149-0.391-0.312-0.777-0.488-1.157  c-0.13-0.01-0.259-0.02-0.389-0.027c-0.651-0.04-1.305-0.047-1.957-0.023c0.212,1.092,0.337,2.197,0.364,3.306  c0.053,2.18-0.271,4.372-1.292,6.646c0.392,0.165,1.378,0.292,1.993,0.148c1.009-0.234,1.021-1.193,1-1.829  C24.786,58.166,24.886,58.426,24.986,58.687z"/>
<path d="M59.781,50.891c-1.327,1.746-2.359,3.766-2.571,5.95c-0.032,0.33-0.044,0.662-0.119,0.982c-0.072,0.306-0.2,0.601-0.37,0.87  c-0.116-0.268-0.216-0.528-0.315-0.789c0.022,0.636,0.01,1.595-0.999,1.829c-0.616,0.143-1.602,0.017-1.994-0.148  c0.697-2.635,1.394-5.27,2.09-7.905c-0.878-0.639-1.579-1.278-2.253-2.133c1.076-0.193,2.101-0.468,3.156-0.75  c0.547-0.146,0.992-0.268,1.531-0.438c0.222,0.455,0.489,0.852,0.781,1.266C59.032,50.068,59.398,50.509,59.781,50.891z"/>
</svg>