<?xml version="1.0" encoding="UTF-8" standalone="no"?>
<svg
   xmlns:dc="http://purl.org/dc/elements/1.1/"
   xmlns:cc="http://creativecommons.org/ns#"
   xmlns:rdf="http://www.w3.org/1999/02/22-rdf-syntax-ns#"
   xmlns:svg="http://www.w3.org/2000/svg"
   xmlns="http://www.w3.org/2000/svg"
   xmlns:sodipodi="http://sodipodi.sourceforge.net/DTD/sodipodi-0.dtd"
   xmlns:inkscape="http://www.inkscape.org/namespaces/inkscape"
   version="1.1"
   id="Layer_1"
   x="0px"
   y="0px"
   width="100px"
   height="100px"
   viewBox="0 0 100 100"
   enable-background="new 0 0 100 100"
   xml:space="preserve"
   inkscape:version="0.48.4 r9939"
   sodipodi:docname="carrot.svg"><metadata
     id="metadata9"><rdf:RDF><cc:Work
         rdf:about=""><dc:format>image/svg+xml</dc:format><dc:type
           rdf:resource="http://purl.org/dc/dcmitype/StillImage" /></cc:Work></rdf:RDF></metadata><defs
     id="defs7" /><sodipodi:namedview
     pagecolor="#ffffff"
     bordercolor="#666666"
     borderopacity="1"
     objecttolerance="10"
     gridtolerance="10"
     guidetolerance="10"
     inkscape:pageopacity="0"
     inkscape:pageshadow="2"
     inkscape:window-width="640"
     inkscape:window-height="480"
     id="namedview5"
     showgrid="false"
     inkscape:zoom="2.36"
     inkscape:cx="50"
     inkscape:cy="50"
     inkscape:window-x="0"
     inkscape:window-y="27"
     inkscape:window-maximized="0"
     inkscape:current-layer="Layer_1" /><path
     clip-rule="evenodd"
     d="m 8.416,91.259 2.772,-4.26 0.207,-0.29 0.413,-0.662 0.455,-0.702 0.287,-0.539 0.375,-0.7 0.37,-0.458 0.29,-0.207 0.127,-0.041 0.123,-0.289 0.29,-0.705 0.496,-0.743 0.578,-0.496 0.207,-0.126 0.04,-0.204 v -0.166 -0.083 l 0.995,-2.15 1.325,-1.738 1.115,-1.118 0.496,-0.412 0.869,-1.861 1.034,-1.284 0.869,-0.785 0.372,-0.207 0.786,-2.024 0.825,-1.324 0.622,-0.705 0.207,-0.206 0.372,-1.365 0.66,-1.238 0.828,-1.161 0.909,-0.909 0.911,-0.744 0.745,-0.577 0.496,-0.333 0.207,-0.124 0.163,-0.33 0.333,-0.827 0.496,-1.075 0.538,-1.035 0.826,-0.908 1.159,-0.912 1.078,-0.666 0.413,-0.248 0.042,-0.784 0.207,-0.869 0.33,-0.746 0.372,-0.785 0.372,-0.619 0.331,-0.497 0.249,-0.331 0.123,-0.124 0.91,-0.745 0.951,-0.455 0.951,-0.291 0.953,-0.041 0.949,0.124 0.91,0.248 0.089,0.038 0.146,0.04 0.868,0.373 0.827,0.412 0.786,0.455 0.703,0.539 0.494,0.37 c 0.551,-0.919 1.21,-1.845 1.565,-2.535 l 0.909,-1.737 0.91,-1.985 0.951,-2.193 0.993,-2.315 0.952,-2.523 0.909,-2.648 0.87,-2.852 0.744,-2.896 0.245,-1.05 -0.369,-0.151 -0.62,-0.371 -0.165,-0.332 0.165,-0.249 0.373,-0.207 0.37,-0.123 0.333,-0.084 0.122,-0.04 0.084,-0.25 v -0.496 l -0.146,-0.435 -0.324,-0.025 -0.371,0.04 -0.455,-0.04 -0.228,-0.077 -0.006,0 -0.373,-0.125 -0.374,-0.206 -0.371,-0.208 -0.538,-0.536 -0.208,-0.29 -0.204,-0.622 -0.084,-0.662 -0.037,-0.49 -0.473,0.237 -0.621,0.043 -0.066,-0.088 -0.167,0.011 -0.496,-0.663 0.165,-0.993 0.87,-0.701 0.875,-0.398 L 52.221,19.348 52.065,19.281 51.989,19.27 51.7,19.146 51.451,18.981 51.244,18.69 51.078,18.358 50.954,17.903 v -0.414 l 0.207,-0.371 0.331,-0.25 0.455,-0.206 0.455,-0.04 0.413,-0.084 0.29,-0.038 h 0.083 l -1.531,-0.536 -0.372,-0.457 v -0.414 l 0.207,-0.372 0.414,-0.412 0.455,-0.291 0.455,-0.208 0.193,-0.096 -0.745,0.05 -0.137,-0.083 -0.098,0.006 -1.488,-0.91 v -0.496 l 0.208,-0.373 0.456,-0.289 0.537,-0.206 0.579,-0.084 0.496,-0.083 h 0.332 0.163 L 52.939,10.956 52.65,10.583 52.358,10.211 52.152,9.838 51.905,9.507 51.78,9.217 51.656,9.011 V 8.93 l -0.042,-0.537 0.207,-0.29 0.29,-0.041 0.414,0.082 0.499,0.166 0.003,0.002 0.229,0.076 0.37,0.208 0.208,0.147 0.388,-0.309 0.288,-0.041 0.159,0.088 0.076,-0.011 0.373,0.207 0.29,0.29 0.246,0.413 0.166,0.332 0.043,0.1 0.179,-0.385 h 0.414 l 0.078,0.078 h 0.155 l 0.483,0.483 0.069,-0.024 0.083,-0.083 0.125,-0.207 0.042,-0.373 0.041,-0.539 -0.123,-0.785 v -0.66 l 0.123,-0.289 0.29,-0.042 0.158,0.088 0.076,-0.011 0.373,0.207 0.373,0.29 0.428,0.429 V 7.896 l -10e-4,-0.58 0.042,-1.116 0.165,-0.579 0.372,-0.207 0.579,0.082 0.434,0.145 0.422,0.14 0.62,0.29 0.578,0.33 0.292,0.228 -0.028,-0.138 0.042,-0.373 0.372,-0.456 0.951,-0.29 0.621,0.125 0.037,0.038 0.197,0.04 0.449,0.455 0.332,0.746 0.206,0.867 0.166,0.827 0.083,0.744 v 0.077 l 0.056,-0.112 0.539,-0.454 0.869,-0.126 0.186,0.085 0.047,-0.007 0.455,0.208 0.207,0.453 0.083,0.58 -0.041,0.62 -0.125,0.704 -0.125,0.539 -0.086,0.312 0.722,-0.433 h 0.33 l 0.181,0.077 h 0.053 l 0.29,0.124 0.208,0.207 0.165,0.333 0.081,0.329 0.084,0.248 0.04,0.208 v 0.084 l -0.45,1.353 0.218,-0.025 0.499,0.082 0.181,0.07 0.052,0.009 0.537,0.206 0.496,0.248 0.456,0.208 0.163,0.116 -0.064,-0.194 -0.084,-0.497 0.207,-0.62 0.704,-0.538 0.538,-0.042 0.208,0.08 0.025,-0.002 0.538,0.206 0.536,0.457 0.498,0.578 0.414,0.579 0.331,0.497 0.185,0.332 0.285,-0.285 0.455,-0.043 0.232,0.077 h 10e-4 l 0.128,0.043 0.011,0.003 0,0 0.234,0.079 0.165,0.082 0.661,0.744 0.288,0.622 0.043,0.62 -0.125,0.455 -0.247,0.415 -0.249,0.331 -0.247,0.165 -0.083,0.084 0.412,0.908 -0.288,0.869 -0.538,0.619 -0.192,0.194 0.249,0.019 0.105,0.067 0.128,0.01 0.454,0.289 0.366,0.367 1.221,-1.602 0.083,-0.083 0.208,-0.125 0.33,-0.164 0.455,-0.209 0.416,-0.081 0.453,-0.042 0.456,0.122 0.021,0.02 0.212,0.058 0.331,0.331 0.208,0.786 -0.331,0.663 -0.538,0.455 -0.249,0.165 0.895,1.565 1.23,-0.856 0.248,-0.25 0.288,-0.041 0.29,0.041 0.075,0.055 0.157,0.023 0.29,0.208 0.291,0.207 0.249,0.166 0.578,0.577 0.248,0.416 0.125,0.454 0.083,0.415 0.041,0.454 -0.033,0.301 0.047,-0.047 0.373,-0.124 0.333,-0.001 0.229,0.077 h 0.003 l 0.372,0.126 0.333,0.165 0.247,0.166 0.206,0.206 0.612,0.703 0.208,0.702 -0.125,0.538 -0.332,0.498 -0.412,0.413 -0.407,0.258 -0.131,-0.053 -0.083,-0.016 0.197,0.08 0.016,-0.011 0.282,0.114 0.496,0.332 0.704,0.538 0.579,0.663 0.082,0.661 -0.207,0.62 -0.413,0.496 -0.539,0.455 -0.496,0.331 -0.373,0.206 -0.113,0.057 0.417,0.074 0.13,0.059 0.104,0.019 0.455,0.206 0.247,0.332 0.125,0.29 0.042,0.289 -0.083,0.249 -0.042,0.207 -0.038,0.037 0.04,0.539 -0.165,0.248 -0.33,0.083 -0.414,-0.083 -0.121,-0.055 -0.111,-0.022 -0.456,-0.208 -0.415,-0.165 -0.175,-0.126 0.079,1.115 -0.33,0.744 -0.456,0.455 -0.207,0.124 1.697,0.703 0.411,0.414 0.167,0.414 -0.042,0.373 -0.208,0.288 -0.289,0.291 -0.249,0.165 -0.208,0.125 -0.123,0.042 1.489,0.827 0.62,1.448 0.128,1.03 -0.208,0.704 -0.414,0.413 -0.538,0.206 -0.496,0.084 h -0.415 -0.164 l 0.413,0.992 0.001,0.662 -0.208,0.455 -0.414,0.249 -0.496,0.083 -0.455,0.042 -0.373,-0.042 -0.124,-0.041 -0.042,0.62 -0.084,0.331 -0.206,0.124 -0.207,-0.041 -0.136,-0.059 -0.098,-0.02 -0.291,-0.123 -0.29,-0.208 -0.33,-0.249 -0.371,-0.289 -0.333,-0.249 -0.291,-0.373 -0.247,-0.33 -0.208,-0.373 -0.122,-0.289 -0.125,-0.29 -0.082,-0.165 -0.002,-0.058 -1.047,-0.237 0.66,0.745 0.415,0.661 0.122,0.538 0.002,0.497 -0.167,0.413 -0.164,0.248 -0.249,0.249 -0.29,0.125 -0.414,-0.084 -0.092,-0.049 -0.141,-0.028 -0.538,-0.289 -0.58,-0.414 -0.538,-0.455 -0.494,-0.414 -0.214,-0.214 -0.381,1.449 -0.58,0.248 -0.199,-0.091 -0.034,0.014 -0.454,-0.208 -0.332,-0.33 -0.125,-0.207 -1.579,-2.607 -0.131,0.08 -0.413,0.165 -0.414,-0.083 -0.019,-0.034 -0.215,-0.042 -0.29,-0.54 -0.083,-0.578 -0.028,-0.196 -0.398,0.026 -0.498,-0.165 -0.001,0 -0.232,-0.077 -0.248,-0.248 -0.165,-0.333 -0.083,-0.33 -0.042,-0.289 0.042,-0.207 v -0.083 l 0.878,-0.642 -0.396,0.057 -2.234,0.579 -2.315,0.745 -2.441,0.952 -2.481,1.075 -2.44,1.116 -2.441,1.2 -2.275,1.2 -2.15,1.157 -1.944,1.118 c 0,0 -1.594,0.892 -1.692,0.949 -0.166,0.092 -0.347,0.192 -0.535,0.292 l 0.1,0.1 0.786,1.036 0.786,1.28 0.586,1.574 0.124,1.694 -0.455,1.945 -1.24,1.901 -0.373,0.372 -0.993,0.828 -0.544,0.313 c 0.07,0.27 0.003,0.558 -0.202,0.762 l -0.04,0.041 c -0.158,0.159 -0.372,0.239 -0.587,0.232 l -1.396,0.349 c -0.176,0.045 -0.357,0.023 -0.521,-0.051 l -0.515,0.837 -0.91,1.155 -0.95,0.788 -1.034,0.536 -0.616,0.272 c 0.022,0.252 -0.06,0.505 -0.254,0.675 l -0.62,0.539 c -0.238,0.206 -0.578,0.254 -0.863,0.118 l -0.219,-0.103 -0.407,0.568 -0.619,0.702 -0.745,0.662 -0.91,0.66 -0.97,0.427 c -0.013,0.262 -0.151,0.507 -0.384,0.646 l -0.622,0.37 c -0.174,0.104 -0.383,0.141 -0.581,0.096 l -0.316,-0.07 -0.229,0.229 -0.661,0.58 -0.829,0.578 -0.991,0.58 -1.159,0.412 -0.028,0.005 c 0.044,0.363 -0.16,0.711 -0.505,0.841 l -0.662,0.246 c -0.162,0.062 -0.338,0.066 -0.504,0.02 l -0.212,-0.063 -0.198,0.234 -0.539,0.622 -0.619,0.619 -0.745,0.498 -0.201,0.066 c -0.053,0.303 -0.271,0.56 -0.582,0.637 l -0.662,0.166 c -0.1,0.026 -0.204,0.03 -0.307,0.017 l -0.039,-0.006 -0.193,0.359 -0.413,0.579 -0.579,0.579 -0.705,0.539 -0.826,0.415 -0.951,0.204 -0.207,0.126 -0.538,0.37 -0.703,0.539 -0.745,0.496 -0.493,0.246 -0.539,0.292 -0.373,0.207 -0.166,0.08 -0.206,0.29 -0.662,0.664 -0.992,0.662 -1.241,0.33 -0.413,0.081 -0.37,0.126 -0.25,0.083 -0.125,0.04 -4.384,2.646 -0.136,-0.136 -0.097,0.06 -0.172,-0.163 z m 64.9,-50.815 -0.011,-0.018 -0.223,-0.061 -0.289,-0.455 -0.208,-0.537 -0.082,-0.248 -0.041,-0.122 -0.387,0.117 -2.399,0.992 -3.061,1.49 -3.681,2.109 -4.261,2.854 -3.801,2.95 1.623,-0.918 2.647,-1.407 2.481,-1.158 2.235,-0.994 2.068,-0.744 1.861,-0.703 1.697,-0.456 1.447,-0.373 1.324,-0.247 0.744,-0.138 L 72.751,42.019 72.709,41.481 73,40.943 73.331,40.612 73.522,40.5 73.316,40.444 z m -3.35,-4.261 -0.373,0.455 -0.122,0.29 -0.29,0.29 -0.704,0.536 -0.662,0.333 -0.094,-0.148 -0.141,0.071 -0.289,-0.455 -0.118,-0.468 -0.352,0.421 -1.323,1.571 -1.449,1.532 -0.819,0.821 0.588,-0.402 1.697,-1.034 1.694,-0.951 1.613,-0.87 1.614,-0.62 1.039,-0.346 -0.749,-0.605 -0.434,-0.567 -0.326,0.146 z m -10.201,-4.669 -0.745,-0.33 -0.456,-0.455 -0.04,-0.455 0.066,-0.154 -0.289,0.108 -0.496,-0.084 -0.089,-0.053 -0.145,-0.024 -0.413,-0.247 -0.273,-0.35 -0.239,1.006 -0.495,1.986 -0.58,2.065 -0.703,2.275 -0.829,2.318 -0.91,2.481 -1.115,2.523 -1.2,2.522 -1.324,2.564 -0.752,1.297 0.851,-1.045 2.316,-2.895 2.522,-3.349 2.481,-3.723 2.399,-3.889 1.78,-3.482 -0.001,-0.032 -0.041,-0.29 v -0.13 l -0.388,10e-4 -0.661,-0.084 -0.15,-0.066 -0.081,-0.009 z m 2.937,7.321 1.857,-2.158 -0.246,-0.118 -0.309,-0.249 -1.938,2.064 -3.888,3.144 -6.598,8.055 3.759,-3.377 4.054,-3.888 3.309,-3.473 z m -0.166,-3.887 -0.373,-0.373 -0.165,-0.25 -0.2,-0.278 -0.684,1.389 -1.488,2.318 -0.921,1.092 0.109,-0.094 2.895,-2.647 1.045,-1.096 -0.088,-0.088 -0.13,0.027 z m 25.96,-4.225 -0.176,0.176 0.233,-0.129 0.042,-0.027 -0.099,-0.02 z"
     id="path3"
     inkscape:connector-curvature="0"
     style="fill-rule:evenodd" /></svg>